<?xml version="1.0" encoding="UTF-8"?>
<svg version="1.1" viewBox="0 0 1280 1280" width="320" height="320" xmlns="http://www.w3.org/2000/svg">
<path transform="translate(0)" d="m0 0h1280v1280h-1280z" fill="#212121"/>
<path transform="translate(779,306)" d="m0 0h10l9 9 4 10 2 8 2 23 1 5v12l5 30 7 30 3 15 2 18 1 5v18l-4 7 3 1-1 9-4 16-8 28-3 8-1 9-8 18-8 11-5 12-4 10-3 5-5 5-1 3h-2l-2 5-8 10-5 5-5 8h-4l-2 4-6 4-4 5-5 5-9 7-8 6-7 6-9 6-8 4-7 6-13 7-13 8-16 8-8 5-7 2-9 6-9 3-4 3-4-1-6-4-4-6-2-5-4-23-4-16h-2l-2-15h-2l-1-2-1-14-1-5v-21l3-3 1-4h-5l2 4-5-1-1-1-2-18-3-25-1-55 2-18 4-16 5-12 3-10 8-11 9-14 8-15 11-16 10-15 7-8 11-9 7-8 13-8 3-1 2-4 4-1v-2l10-6h3l2-4 7-4 4-1v-2l18-10 5-5 12-6 18-12 7-3 9-2 5-3h2l1-3z" fill="#6C4E2A"/>
<path transform="translate(849,105)" d="m0 0h11l11 6 11 9 11 10 7 14v6l-8 8-11 8-12 9-10 9-7 8-4 7-11 16-7 12-4 17v12l12 24 4 9 7 12 7 9 3 7 3-2 5 4 6 9 5 5 3 6 5 4 5 3 8 7 11 8 11 7 13 11 6 4 13 11 5 4v2l4 2 16 16 5 7 5 5 1 4h2l4 7 2 4h2l9 13 3 3 3 6 9 13 7 12 6 9 8 16v3l-2 2 6 8 3 14 1 15 1 49v59l-1 29-2 30-5 46-2 5-4 2-10-5-11-8-7-6-1-2-10-4-8-6-5-3-6-4-5-3-10-7-9-6-1-3-4-1-10-8-8-6-4-4-8-7-12-11-7-6-8-6-2-4-4-2-7-8-11-11-7-8-9-8-4-5-6-4v-2l-3-1v-8l5-14 4-11 2-9 5-21 5-15 3-26 2-12 2-10v-20l2-2-1-6-1-3v-17l-6-48-2-26-4-5-5-14-2-7-4-6-3-5-5-5-13-18-1-3-4-2-6-7-6-8-8-9-5-7-1-6 1-2-4-2-4-5-2-9v-11l-1-5v-13l4-8v-9l7-17 3-5 3-7 5-1 2-8 4 1 3 2h5l-1-4-11-3 1-8 7-18 8-13h2l2-4 11-11z" fill="#4B3F31"/>
<path transform="translate(327,520)" d="m0 0h13l21 5 10 3 17 3 19 4 14 1 3 2 12 1h11l4-1h8l8 3 1-5 1-1 7-1h30l9 3 3 5-1 7-2 7-2 3-3 17v24l-2 7v7l2 9v6l-3 4h-2l-2 7-2 6 3 3h6l2 1 4 31 2 9 4 8 3 11 6 16 7 14 3 4 1 3v7l-2 5-7 3-7 2-10 5-10 2v2h-11v2l-13 1-8 2-11 1-3 1h-12l-24 3-2 1-11 1h-9l-6-1v2h-11l-1-1-29-1v-2l-16-2-10-3-10-5-3-1v-2l-5-1-11-5-14-5-8-3-11-2-38-2-4-1v-7l3-8 2-25 4-14 5-26 6-25 6-18 5-11 5-13 7-11 5-5 3-1 2-4 4-7 5-5 3-4h2l1-4 3-1 2-4 4-7h2l1-4h2l2-4 1-3h2v-3l2-1 1-3 5-5z" fill="#A6691B"/>
<path transform="translate(808,663)" d="m0 0 5 2 6 5 1 4 3 1 11 14 1 4 5 2 7 7 2 5 3 3v2l8 4v2l4 2 10 13 7 5 3 4v2l6 2 2 4 5 2 8 6 9 5 4 3 8 3 16 9 9 4 1 14v39l-12 36-3 4v8l-5 12-5 8-3 9-5 16-7 15-8 20-6 9-6 12-12 16-10 13-5 5-6-2-17-10-10-7-13-8-6-5-4-4-11-7-8-6-9-7-14-10-14-11-8-6-9-6-8-6-1-3-11-8-5-7-9-7-4-5-6-5-4-5-1-3-8-6-2-9h-2l-6-9-4-3-5-10-2-7-1-4-4-1-2-5-2-8-5-13-2-3v-5l6-2h11l11-6 14-7 10-7 5-4 6-4 3-3 3-5 14-12 6-5 8-3 7-8 14-15 4-2 2-4 9-9 8-10 6-5 4-1 2-10 10-10z" fill="#6B4E2A"/>
<path transform="translate(545,252)" d="m0 0h31l44 2 20 2 4 1 15 1 31 6 4 1 13 1 6 2 16 2 1 4-5 3-10 5-6 7-5 1-4 1-7 5-5 3-4 3h-6v2l-5 3-5 4-8 4-8 6-17 13-8 8-8 6-17 17-8 7-7 8-6 3-2 8-7 8-5 8-12 22-7 11-12 24h-2l-2 6-5 10-19 1-9-1-6 2-5-1-6-1-2 2h-9l-6-2v2l-2 1-11 1-4-2-4 2-6-1-35-1h-34l-12-3-3-1-2 1h-11l-7-3-14-1-10-4v-2l-6-1-5 1-5-1v-2l-9-2-4-2-7-1-2-5 6-12 2-5 5-10h2l1-5 5-5 1-3h2l2-5 8-15h2l2-5 4-7h2l2-4 5-7 3-5h2l2-4 6-7 3-5 8-7 2-3h2v-2l8-7 12-11 11-9 5-5 12-7 2-3 10-4 13-8 4-3 19-5 5-4 8-4h2v-2l10-3 11-1 19-6 12-3z" fill="#A6691B"/>
<path transform="translate(443,973)" d="m0 0 7 1 5 8 5 12 10 23 4 7 3 11 2 2h9l5-3 10-1 14-8h2v-2l12-1 7-3 11-1 3 8 5 6 15 30 5 4 3 7 8 15v2l4 2 1 1v5l-7 6-10 6-5 5-5 3-6 3h-2l-1 3-6 4-9 1v2l-18 8-7 4-18 5-10 5-10 3-8 4-11 1-15 5-13 6-8 3-4-1-9-24-4-10-7-18-7-16-9-23-6-13-5-16-5-12-5-13-3-14-5-15 1-5h14l14-3 3-1 13-1h14l1-3 7-2v-2z" fill="#A5691B"/>
<path transform="translate(591,460)" d="m0 0h5l3 2 1 9h-2l1 4-1 3h3l1-2 3 2v3h2v3l2 1-2 6 6 1 4 4v2l4 2 1 5h-2v2l3 1 2 9 2 7 1 2v7h2v18h2v-4l6-1-2 4-1 5 4-2v-5h3l1 7-3 6 6 2 1 3h-2l1 9 2-2 3 1 1 6h2v3l2 1-3 3-4 1 1 7 1 4 2 1-3 7 8-2 3-3 6 1 2 7 1 5 2 2 1 9-3 2-1 9-5 3 2 1v4l4-2 3-7 10 1v4h5 3l2 3h-3l2 5 1 3 6 1v2l3-1 3-9h2l1 2v6l4-1 3 5v5l-2 2-1 4-9-1-2 4-6 2v2l2 1-2 6-4-4v-2h-7l-1 7-3 1 9 1v2l6-1 3-7 3 2v2l6-1 3 9-4 2-2-2 1-5-8 6-1 4 3 1v2l-5 2-1-5-7 2-2-1-2 6-3 1-1 4 4 1-5 4h-4v-2h-4v5l-5 4-6 4-5-1-2 5-14 7-7 5-12 6-3 3-8 2-4 3-4-1-6-4-4-6-2-5-4-23-4-16h-2l-2-15h-2l-1-2-1-24v-14l4-4 1-9-8-1-2-7-1-3 2-5h2l-1-3v-1l-4-1-1-9-1-2-1-11v-43l1-22 3-7 2-13 7-14 3-7 5-1 1-9 4-2 5 2 1-7-4-2z" fill="#A6691C"/>
<path transform="translate(553,801)" d="m0 0h6l6 22 1 2 6-1 10-6 6-1 1 1 3 16 4 13 5 13 3 9 4 6 5 10 7 9 2 1 3 5 8 8 7 4 11 6-3 3-10 4-6 4-1 2-7 2h-11l-7 4-8 2-8 6-4 1-5-1v2l-13 3-14 9-4 4-7 1-13 5-3 6-7 2-5 1v2h-7l-7-4-4-9-5-12v-3h-2l-4-7-3-9-6-15-6-12-5-15-6-13-3-9h-2l-5-13-6-13v-3h-2l1-5 7-2 5-2h13l13-4 21-11 4-1v-2l7-2 4-3 10-3 10-4z" fill="#A5691B"/>
<path transform="translate(718,757)" d="m0 0 4 1 1 2h6v3 3h-2l-1 2-2-1v-2l-6 6h-2l-1 6 7-1 2-1 1 2h4v2l2 1 1 4 4 1v2l4 1 1 6-3 8h-2l-1 8 2-4v-2h2l1-3 4 2 2 5-1 5h3l1-2 3-3-3-1-1-3 3-2 5 3 1 2h3l1-2v2h2l1-5h3v4h4v-5l10 1-2 6 5 1v2h3l-1 3h-4l-1 3h-3l-2-8h-9l-3-1-1 3-2 1v6l2 1 1 7-5 4-2 3-5 1 3 5 7 2 1 3 4 1 1 4-2 8h3l-1 3-3 3 3 2 2-1 3 3-1 6 2-2 7 1 2 4v6l-3 5h2l1-2 4 2-3 3h-3l2 2v4l3-5 4-1-2 6 3 3-1 4 3-2h3v2l4-1 4 3 3 2-7 5-4 2-2 4h-2v2h-2v-2l-4 1 1 9h-2l-2 5 2 4h3l3 10h2l6 10 5 3 2 5 2 1v2l4 2 10 7 4 7-3 1-1 4-7-1-5-5-13-9-14-10-5-4-11-8-14-11-8-6-9-6-8-6-1-3-11-8-5-7-9-7-4-5-6-5-4-5-1-3-8-6-2-9h-2l-6-9-4-3-5-10-2-7-1-4-4-1-2-5-2-8-5-13-2-3v-5l6-2h11l11-6 14-7 10-7 5-4 6-4 4-5 6-3z" fill="#A5691B"/>
<path transform="translate(545,252)" d="m0 0h31l44 2 20 2 4 1 15 1 31 6 4 1 13 1 6 2 16 2 1 4-5 3-10 5-6 7-5 1-4 1-7 5-5 3-4 3h-6v2l-5 3-5 4-8 4-8 6-17 13-8 8-8 6-17 17-8 7-7 8-6 3-2 8-7 8-5 8-12 22-7 11-12 24-1-2 5-11 4-10 6-10 1-7 4-1 7-13 3-5 2-6 3-5 6-3 1-7-1-5-5-2-1-4-5-2-2 1v-2h-2v2h-5l-3-6 1-7-1-1-6 1-1-4 4 1 4-4-1-3-3-1 7-5 2-5-8 1 2-1v-2l-6-1-1-4 1-9 3-3 2-4v-6h2l-1-3h-2v2h-6l-1-3 3-2 2 1-1-7-5-2h-6v-7h2v-3l5-1v4h6l1-2h-5l-1-3-5-4-5 1-1 5-4 1h-2l1-12 4-6v-7l7-2-1-5-7 5h-21l-7 2-24 6-12 1-6 1 2-2 8-2 11-1 19-6 12-3z" fill="#6B4E2A"/>
<path transform="translate(318,825)" d="m0 0h24l2 3h3l1-2 16 2 5 2 18 2 2 2v11l7 18 5 12 10 22 4 15 4 10 5 7v4l-35 1-17 2-3 1-15 1-2 1h-69l-1-4 4-11 4-17 1-23 4-18 8-16 4-12 6-9z" fill="#A5681B"/>
<path transform="translate(677,959)" d="m0 0h4l5 5 12 9 13 11 22 16 10 4 1 4-2 4-3 3-4 12-10 19-2 5-3 3-11 24-2 5h-2v3h-2v3h-2l-2 7h-2l-2 5-5 11-4-1-2-2-4-1v-2l-4-2-5-6-3-5-5-5-1-3-6-5-3-5-5-5-6-7-8-7-4-5v-2h-2v-3l-3-1v-3h-2l-1-3-2-1-3-5-4-3v-3l-3-1-2-4-3-2-3-6-3-3-3-5v-2l16-8 16-6 5-4 8-4 8-5 11-6 12-9h2v-2z" fill="#A5691B"/>
<path transform="translate(867,559)" d="m0 0 3 3 2 8v7h-2v4l3 1-3 1 1 3 4 2v2l5 1 3 2v2h2l2 8v3 3l-3 8h-2l-1 8 1 5-1 3h2v2h7l3-2-3-1v-4l-7-2v-3l4-1v-2l6-1h3v3l-4 2 4 4 7 3v8l5 1 3-1 1 3 5 5v2h-4l-1-3v4h-3v3l5 2-1 2-3 1 1 7 6 8 6 4 3 5 2 6-6 4-7-2-8-7-4-4-8-6-2-4-4-2-7-8-11-11-7-8-9-8-4-5-6-4v-2l-3-1v-8l5-14 4-11 2-9h2l1-3 4-1 1 1 4-14z" fill="#694D2A"/>
<path transform="translate(779,306)" d="m0 0h10l9 9 4 10 2 8 2 23 1 5v12l5 30 7 30 3 15 2 18 1 5v18l-2 1v-15l-3-8h-2l1-8-1-17-5-1-1-6 1-4h2v-5l-3-1v-2l-3-1-1-2v-8l-2-1-4-5v-9l5-4-5-5-5-11v-2h2l-4-15 3-1 1-20-5-1-1 3-7 1h-2l1-4 6-3-1-4-5 3h-4l-1-3-3-1-4 4-4-2-2-6-1-4-14-3v-1l9-2 5-3h2l1-3z" fill="#4B3F30"/>
<path transform="translate(589,459)" d="m0 0 1 4 3 2-1 7-7-1-2 4v6l-6 2-5 13-4 7-3 16-2 4-1 23v42l1 11 1 4v7h6l-1 5h-2l-1 7 2 2v6l8 1 1 6-3 5-2 2v24h-1l-1-5v-21l3-3 1-4h-5l2 4-5-1-1-1-2-18-3-25-1-55 2-18 4-16 5-12 3-10 8-11z" fill="#61492C"/>
<path transform="translate(517,542)" d="m0 0h1v10l-5 16-1 7-1 28-1 3v8l2 8v6l-3 6 1 6 3 5 2 13 3 28 6 13 2 9 6 16 4 9 3 5 2 1 2 5v12l-5 5-11 3-4 1 5-4 10-3 2-1 1-4v-7l-3-6-5-8-5-11-5-14-3-11-4-9-2-13-2-19v-5h-8l-4-4 2-6 3-7h2l2-4-1-12-1-3v-7l2-7v-24l3-17 3-4 1-11z" fill="#60482C"/>
<path transform="translate(534,464)" d="m0 0 1 3-7 14-10 1h-19l-3 1h-8l-6-2v2l-3 1h-8l-5-2v2l-18 1h-9l-2-1h-23l-10-1-1 1-11-1-6 1h-12l-16-3h-10l-6-1v-1l10-1 4-1 8 3 5 1h42l27 1 6 1 5-2 5 2 11-1v-2h5l1 1h9l4-2 7 2 6-1 4-1 8 1h18l1-5z" fill="#5C472D"/>
<path transform="translate(729,923)" d="m0 0 5 2 10 6 4 3v2l5 2 8 5 3 1 1 3 4 2 5 5 6 4 1-3h3l1 8 11 6 4 4 3 2h8l4 8-1 4-5-5-11-7-8-6-9-7-14-10-14-11-8-6-9-6-7-5z" fill="#60492C"/>
<path transform="translate(690,696)" d="m0 0h3l2 6-8 6-10 7-8 4-13 8-16 8-8 5-2-1 12-8 9-4 2-4 7-1 8-6 1-5h4v2l7-3 1-1-3-1 1-5h3l1-4 1-2z" fill="#644A2B"/>
<path transform="translate(402,561)" d="m0 0 7 1-2 2-6 1-1 5 4 5 7 3v-2h2l2-7 4-6 10-2 4 2-4 4h-3v2l-4 1-1 3-8 8h-7l-3-2v-2l-7-2-6 1 4-8 4-1 2-4z" fill="#CCA470"/>
<path transform="translate(560,567)" d="m0 0h1l2 32 1 4v7h6l-1 5h-2l-1 7 2 2v6l8 1 1 6-3 5-2 2v24h-1l-1-5v-21l3-3 1-4h-5l2 4-5-1-1-1-2-18-3-25z" fill="#62492B"/>
<path transform="translate(736,629)" d="m0 0h2v2l-4 3v4l-3 1v7l5 2 1 4v2h3v2l-7 1v-2h-8l-2 1-3-5v-7l-4-2v-1l10-1 5-5 1-4z" fill="#AE762F"/>
<path transform="translate(851,974)" d="m0 0h1l-1 11-4 10-3 5-3 1-4-3-5-1-3-2v-7l2-1 5 5 1 2h4l2-8 6-10z" fill="#A6691B"/>
<path transform="translate(577,389)" d="m0 0h2l-2 5-7 7-11 21-10 17-4 6-8 18-2 1 3-9 4-10 5-9 3-5 1-7 4-1 7-13 3-5 2-6 3-5 6-3z" fill="#5C472D"/>
<path transform="translate(536,253)" d="m0 0h7v1l-7 2-4 3h-21l-7 2-24 6-12 1-6 1 2-2 8-2 11-1 19-6 12-3z" fill="#624A2B"/>
<path transform="translate(939,688)" d="m0 0h2l1 6h2l-1 4h2v2h4l1 4-1 3-3-1v-2l-4-1-1-4-8 1-3-1h-5l-1-3h3l1-5 6-1v2z" fill="#78572F"/>
<path transform="translate(557,799)" d="m0 0 3 1 4 12 2 9 1 2 5-1 9-5 9-1 1 1 1 11 5 16 6 17 2 9-3-3-6-18-4-11-3-13-1-7-8 2-10 6-5-1-3-9-3-12v-3h-6z" fill="#5A462D"/>
<path transform="translate(798,256)" d="m0 0 7 2 4 2h6l1 5-2 2-5 2-7 4h-2l-2-10-1-6z" fill="#6B4E2A"/>
<path transform="translate(571,362)" d="m0 0 1 2h6l10 2v-2l3 1 2 5-3 1-1 4-5 3v-3l-6-1-5-5-4-2 1-4z" fill="#A5691B"/>
<path transform="translate(973,708)" d="m0 0 5 1v6l-3 1 1 5-2 2h-3l-1 2-8 1-2-6v-2h2v-2l9-1v-5z" fill="#7F5C30"/>
<path transform="translate(889,619)" d="m0 0h7v3l-4 2 4 4 7 3v7h-8l-1-2 1-2-5-2v-4l-7-2v-3l4-1v-2z" fill="#8A673A"/>
<path transform="translate(681,960)" d="m0 0 4 2 6 4 11 8 3 2v2l4 2 11 9 13 9 12 6 1 4-4 6-3 5-3 8-1-3 4-11 3-1 1-7-11-5-14-10-25-20-11-8z" fill="#5C472D"/>
<path transform="translate(708,762)" d="m0 0v3l-7 6-6 4-5 4-11 7-20 10h-12l-4 1-1 5-2-4v-2l3-2 16-1 12-6 11-6 10-7z" fill="#5D472C"/>
<path transform="translate(877,840)" d="m0 0 10 2 2 4 3 2v2l-12 2h-5l-3-5 4-1-1-3z" fill="#CCA470"/>
<path transform="translate(472,533)" d="m0 0h35l7 2 1 2-9-2h-30l-7 1-2 5-8-2h-8l-6 1h-11l-10-1v-3l6 1h37l1-3z" fill="#5B462D"/>
<path transform="translate(534,464)" d="m0 0 1 3-7 14-10 1h-19l-3 1h-8l-6-2v2l-3 1h-8l-5-2v2h-3v-2h2v-2h5l1 1h9l4-2 7 2 6-1 4-1 8 1h18l1-5z" fill="#5C472D"/>
<path transform="translate(493,688)" d="m0 0h2v5l4 4-1 3-2-1-1-3-2-1v2h-2l-1 16-2 2-2-1-1 6 2 1-1 3-4-1 2-9 2-8 1-9 4-2z" fill="#CCA470"/>
<path transform="translate(901,409)" d="m0 0h3l2 3v4l4 2-2 4h-6l-3-3-4-2-1-5 5 1v-3z" fill="#74542D"/>
<path transform="translate(683,675)" d="m0 0 8 1 4 5 2-1-2 7h-6v-2h-9l-1-2h4z" fill="#6B4E29"/>
<path transform="translate(712,670)" d="m0 0 4 1v3h2v-3l5 2 4 3-1 3h-2v-2h-8l-2-1 1 2h3v5h-5l-5-4 2-7z" fill="#A86C20"/>
<path transform="translate(771,801)" d="m0 0 10 1-2 6 5 1v2h3l-1 3h-4l-1 3h-3l-2-8-8-1 3-2z" fill="#A2671B"/>
<path transform="translate(857,336)" d="m0 0 5 1 4 6 3 8-1 2-7-1-1-3 1-5-4-1-1-3z" fill="#735229"/>
<path transform="translate(361,525)" d="m0 0h7l12 3 14 3 13 2 14 1 2 3h-7l-9-1-29-6-14-3z" fill="#5C472D"/>
<path transform="translate(950,785)" d="m0 0h1l1 11v29l-2-3-3-3v-5h2l1-2v-12l-3-2-1-7 2-5z" fill="#4B3F31"/>
<path transform="translate(555,380)" d="m0 0h7l1 3 3 1 2 6-4 3-5-2-4-7v-2l-2-1z" fill="#6B4E2A"/>
<path transform="translate(578,699)" d="m0 0 3 4 3 12 4 23 3 6 2 5 4 2 3 2h5l-1 2h-6l-6-5-5-7-5-24-3-15z" fill="#5F482C"/>
<path transform="translate(561,524)" d="m0 0h1v50h-1l-1-7-1-28 1-13z" fill="#654B2B"/>
<path transform="translate(750,319)" d="m0 0h2l1 2 4 2-1 9-2 1-5-2-3-8-4 1 3-3z" fill="#493D2F"/>
<path transform="translate(703,686)" d="m0 0h2v5h4l2 1-11 8-5 2v-2l4-1-3-3-1-5 7-4z" fill="#664B2A"/>
<path transform="translate(851,974)" d="m0 0h1l-1 11-3 7-5 1-1-5 7-12z" fill="#CCA470"/>
<path transform="translate(794,232)" d="m0 0 4 1 3 5 2 1 1 7-7 2-1-1 1-7-4-4z" fill="#7C5A2F"/>
<path transform="translate(749,470)" d="m0 0h8l6 2-2 4h-2v2h-7l-4-3z" fill="#CCA470"/>
<path transform="translate(995,592)" d="m0 0h2l-1 4-10 10-7 4-2-1v-2h2v-2l4-2 6-7z" fill="#CCA470"/>
<path transform="translate(717,595)" d="m0 0 7 1 1 4-7 7-7-1-1-5h2v2h6v-2h-2l-1-4h2z" fill="#AA7027"/>
<path transform="translate(517,542)" d="m0 0h1v10l-5 16-3 27h-1v-19l3-17 3-4 1-11z" fill="#5E482C"/>
<path transform="translate(338,395)" d="m0 0 7 1 12 2 1 4-7 1-12-4z" fill="#CCA470"/>
<path transform="translate(537,278)" d="m0 0 4 1 6 4v2l4 1-1 3-6-1v-4l-5 1-1 3-1-2-2 1-2-2 1-5z" fill="#A66A1E"/>
<path transform="translate(893,669)" d="m0 0 3 1 4 4 5-1 5 3 3 4-4 1-2 2-4-4-8-6z" fill="#4B3F31"/>
<path transform="translate(502,258)" d="m0 0 4 1h-2v2l-24 6-12 1-6 1 2-2 8-2 11-1z" fill="#5F482C"/>
<path transform="translate(833,859)" d="m0 0h3l-1 5-2 3h-3l-1 3-3 2-1 3h5v2h-5l-2-5 2-5h2l1-3h4z" fill="#B17B35"/>
<path transform="translate(589,459)" d="m0 0 1 4 3 2-1 7-7-1-3 1 2-5z" fill="#654B2B"/>
<path transform="translate(332,383)" d="m0 0 3 2v5l2 3-2 1-7-3-3-3 2-4z" fill="#CCA470"/>
<path transform="translate(808,553)" d="m0 0 1 3-1 2-1 9-8 18h-3l4-8 4-11v-6-3l1-2h3z" fill="#4B3F31"/>
<path transform="translate(676,262)" d="m0 0 9 1 9 2 13 1 6 2 9 1v1h-10l-10-2-9-1-14-2z" fill="#4B3F31"/>
<path transform="translate(514,658)" d="m0 0h1l3 28 6 13v5l-2-2-3-8-4-10-1-10z" fill="#58452E"/>
<path transform="translate(326,518)" d="m0 0h12l17 4 6 2v1l-8-1-13-3h-13l-4 2 2-4zm-5 5 2 1-2 1z" fill="#5E482C"/>
<path transform="translate(572,352)" d="m0 0 3 1-2 4-6 1 1 4h-5l-1-1v-5l3-2z" fill="#A6691B"/>
<path transform="translate(581,472)" d="m0 0h2v9l-6 2-2 6-3 1 1-7z" fill="#624A2B"/>
<path transform="translate(450,390)" d="m0 0h3l-1 5-4 3-5 2-6-1-2-3 7 1 4-4z" fill="#CCA470"/>
<path transform="translate(733,750)" d="m0 0 1 2h2l1 5 4 1 1 2-7 1h-2v-2l-3 1 2-5-2-1z" fill="#A6691B"/>
<path transform="translate(962,716)" d="m0 0 4 1-1 1 5 3v4l-8 1-2-6v-2h2z" fill="#6B4E29"/>
<path transform="translate(807,975)" d="m0 0 5 1 3 7-1 4-5-5-5-3v-3z" fill="#664B2B"/>
<path transform="translate(507,634)" d="m0 0 4 8h-2l-1 5-4 1-2-4 3-5z" fill="#4B3F31"/>
<path transform="translate(714,676)" d="m0 0 10 1v2l4-1-4 4-9 5 1-4h2v-5l-4 1z" fill="#60492C"/>
<path transform="translate(674,659)" d="m0 0 4 1v10l-7-1 1-8z" fill="#6B4E2A"/>
<path transform="translate(990,712)" d="m0 0 4 1-1 5-3 1v3l-5 2 1-7 3-1z" fill="#896538"/>
<path transform="translate(549,434)" d="m0 0h2l-2 5-4 6-8 18-2 1 3-9 4-10 5-9z" fill="#58452D"/>
<path transform="translate(577,389)" d="m0 0h2l-2 5-7 7-1 2h-3l1-4 3-5 6-3z" fill="#624A2B"/>
<path transform="translate(573,613)" d="m0 0 3 1-1 16-3-2-1-11z" fill="#CCA470"/>
<path transform="translate(494,1082)" d="m0 0 3 3v2h4v-2l4 1-2 4h-7l-4-3v-4z" fill="#CCA470"/>
<path transform="translate(424,541)" d="m0 0 3 1h-2l-1 6h3v3l-4-1-2-1-1 2-4-2 2-4 5-2z" fill="#CCA470"/>
<path transform="translate(860,336)" d="m0 0 3 2 3 5 1 1v5l-4-1-2-5-3-2v-4z" fill="#A87E48"/>
<path transform="translate(487,656)" d="m0 0h4l1 2h4l1 6h3v2l-4 1v-2l-3-1-5-5z" fill="#CCA470"/>
<path transform="translate(745,634)" d="m0 0 5 2 2 3v3l5-1 1 3-6 1v-2l-3-1-4-4z" fill="#BC8B4C"/>
<path transform="translate(937,450)" d="m0 0 7 1 4 4v4l-6-1v-3l-6-3z" fill="#CCA470"/>
<path transform="translate(565,624)" d="m0 0 2 1-1 8 9 1v5l-1-4h-5l2 4-5-1-1-1z" fill="#4B3F30"/>
<path transform="translate(444,549)" d="m0 0 9 3-2 1v2l-12-1 2-4z" fill="#CCA470"/>
<path transform="translate(961,700)" d="m0 0 3 1 1 3-1 2h-2l-1 4-5 1v-4h3v-6z" fill="#876336"/>
<path transform="translate(669,711)" d="m0 0h4v2l9-2-5 4-8 4-3-1 2-4z" fill="#61492C"/>
<path transform="translate(361,550)" d="m0 0h9l6 1v2l-9 1-7-1z" fill="#CCA470"/>
<path transform="translate(729,923)" d="m0 0 5 2 10 6 4 3v2l3 1-1 2-12-9-9-6z" fill="#5E482C"/>
<path transform="translate(820,492)" d="m0 0 2 1-1 3 3 1-1 9-2 9h-1v-7l2-10-4-1 1-4z" fill="#4B3F31"/>
<path transform="translate(688,698)" d="m0 0 4 1 2 4-6 4-2 1v-5l1-1-2-1v-2z" fill="#4B3F31"/>
<path transform="translate(723,640)" d="m0 0 4 2 1 4h-7l-5-5z" fill="#CCA470"/>
<path transform="translate(754,592)" d="m0 0 3 1-1 7-4 1-1-4v-2l-2-1z" fill="#CCA470"/>
<path transform="translate(927,519)" d="m0 0 4 1 1 5-1 2-5-1-1-1v-5z" fill="#8F6D41"/>
<path transform="translate(448,481)" d="m0 0 6 2h9v1l-15 1h-9l-4-3 9 1z" fill="#5F482C"/>
<path transform="translate(718,671)" d="m0 0 5 2 4 3-1 3h-2v-2h-8z" fill="#A66A1D"/>
<path transform="translate(660,840)" d="m0 0 4 4 2-1 2 5v7l-3-2-5-10z" fill="#644B2B"/>
<path transform="translate(756,818)" d="m0 0 5 1v6h-2l-1 3-4-2 4-1v-4l-5-1z" fill="#CCA470"/>
<path transform="translate(771,801)" d="m0 0 10 1-2 3-4-1 3 3-10 1 3-2z" fill="#CCA470"/>
<path transform="translate(727,665)" d="m0 0 8 3v2l-5 1v3l-2-1 1-2h-2l-1-5z" fill="#A6691B"/>
<path transform="translate(573,639)" d="m0 0 1 3-2 2v24h-1l-1-5v-21z" fill="#61492C"/>
<path transform="translate(861,353)" d="m0 0 3 1-1 7h-4l-1-7z" fill="#212121"/>
<path transform="translate(828,773)" d="m0 0 7 3 1 7-4-1-1-5-4-1z" fill="#CCA470"/>
<path transform="translate(739,742)" d="m0 0h2l-1 6h2l-1 4-5-1-1-2h2v-5z" fill="#B68240"/>
<path transform="translate(821,715)" d="m0 0h4v2l4-1-2 6h-3l1-3-2-1v3l-3-1-1-3z" fill="#CCA470"/>
<path transform="translate(774,480)" d="m0 0h3l-2 4-2 1-2 5h-4l2-6h3v-3z" fill="#CCA470"/>
<path transform="translate(950,449)" d="m0 0 5 1-5 5-2 3-3-5-1-2z" fill="#6D4F29"/>
<path transform="translate(555,423)" d="m0 0 1 4-4 7-3-1 2-9z" fill="#654B2B"/>
<path transform="translate(571,383)" d="m0 0 4 1 3 5-1 2-6-2-2-5z" fill="#CCA470"/>
<path transform="translate(659,663)" d="m0 0 2 1v2l6 2v3l-8 1 2-4-3-1z" fill="#CCA470"/>
<path transform="translate(777,589)" d="m0 0 5 1 2 3-1 4-5-1z" fill="#CCA470"/>
<path transform="translate(653,564)" d="m0 0 4 1 1 3-3 4-4-2v-4h2z" fill="#A6691B"/>
<path transform="translate(769,456)" d="m0 0h3l-1 4-2 3-8 1-1-3h6z" fill="#CCA470"/>
<path transform="translate(758,323)" d="m0 0h3l1 4 2 1-1 3h-5l-1-4z" fill="#CCA470"/>
<path transform="translate(852,124)" d="m0 0 5 2-1 4h-6l-2-1 2-4z" fill="#CCA470"/>
<path transform="translate(509,1071)" d="m0 0h8l1 2-15 3v-3z" fill="#CCA470"/>
<path transform="translate(743,817)" d="m0 0 4 1 3 2h2v2l-5 2-6-4 1-2z" fill="#6B4E2A"/>
<path transform="translate(467,643)" d="m0 0 5 2 3 2v4l-4-1-3-1z" fill="#CCA470"/>
<path transform="translate(354,477)" d="m0 0 10 3v1h-16l-6-1v-1l10-1z" fill="#62492B"/>
<path transform="translate(611,434)" d="m0 0 2 1 2 7h-7l-1-4z" fill="#A6691B"/>
<path transform="translate(660,309)" d="m0 0 6 2-2 2-5 3-7 5-2-1 7-5z" fill="#4B3F31"/>
<path transform="translate(814,240)" d="m0 0 4 1 3 2v4l-4 1-3-4z" fill="#72522A"/>
<path transform="translate(781,955)" d="m0 0h3l1 10-7-5v-2h2z" fill="#654B2B"/>
<path transform="translate(700,896)" d="m0 0 8 6 5 4 3 4-1 2-7-7-8-7z" fill="#5F482C"/>
<path transform="translate(493,688)" d="m0 0h2v5l4 4-1 3-2-1-1-3-2-1v2h-3z" fill="#CAA26D"/>
<path transform="translate(469,595)" d="m0 0 5 1 1 6-4 1-2-4z" fill="#CCA470"/>
<path transform="translate(854,965)" d="m0 0h1l-1 10-2 10h-1v-13l2-6z" fill="#A6691B"/>
<path transform="translate(781,810)" d="m0 0 6 1-1 3h-4l-1 3h-3l2-6z" fill="#CCA470"/>
<path transform="translate(648,393)" d="m0 0 4 1 5 3 4 2-4 1-2-1v2h-3l-3-6z" fill="#AF7830"/>
<path transform="translate(928,771)" d="m0 0 5 2 14 7-4 1-10-5z" fill="#4B3F31"/>
<path transform="translate(708,762)" d="m0 0v3l-7 6-5 3-3-1 14-10z" fill="#5C472D"/>
<path transform="translate(831,686)" d="m0 0 4 4v3l5 2 4 5-6-2-5-5-2-4z" fill="#4B3F31"/>
<path transform="translate(706,661)" d="m0 0h3l1 5-6 1-2-4z" fill="#CCA470"/>
<path transform="translate(656,638)" d="m0 0h6v2l-5 1v2l-4 1-3-4 5-1z" fill="#6B4E2A"/>
<path transform="translate(351,575)" d="m0 0h2l-2 10-2 5h-2l2-10z" fill="#CCA470"/>
<path transform="translate(973,708)" d="m0 0 5 1-1 4-6 1 1-5z" fill="#815D2F"/>
<path transform="translate(676,611)" d="m0 0h4v3l8 2-1 2-6-1-5-2z" fill="#AF772F"/>
<path transform="translate(386,558)" d="m0 0 3 1 3 4v2l-8-1z" fill="#CCA470"/>
<path transform="translate(816,478)" d="m0 0 4 2 1 3-2 4-3-1-1-6z" fill="#4B3F31"/>
<path transform="translate(462,632)" d="m0 0 5 5-1 3-6-2 1-5z" fill="#CCA470"/>
<path transform="translate(786,321)" d="m0 0h2l1 6-5 1-1-4z" fill="#6B4E2A"/>
<path transform="translate(600,605)" d="m0 0h2v2l4 1 5 5-6-1-3-3-3-1z" fill="#CCA470"/>
<path transform="translate(710,601)" d="m0 0h2v2h6v4l-7-1z" fill="#CAA26D"/>
<path transform="translate(788,589)" d="m0 0h5l-2 4-2 3-4-2v-2h3z" fill="#A86C20"/>
<path transform="translate(1023,656)" d="m0 0 4 1v6h-4l-1-4z" fill="#CCA470"/>
<path transform="translate(987,635)" d="m0 0h7l1 4-2 2-4-2-3-3z" fill="#CCA470"/>
<path transform="translate(806,895)" d="m0 0 5 2 2 1 1 4-4 1-4-6z" fill="#A6691B"/>
<path transform="translate(346,825)" d="m0 0h8l5 1v1h-7l-4-1-1 3-4-1-1-2z" fill="#5A462D"/>
<path transform="translate(799,672)" d="m0 0 6 2 1 2-7 1-2-1z" fill="#CCA470"/>
<path transform="translate(386,614)" d="m0 0 10 1v3l-3 1-7-3z" fill="#CCA470"/>
<path transform="translate(556,376)" d="m0 0h9l1 3-3 1-7-1z" fill="#CCA470"/>
<path transform="translate(610,323)" d="m0 0 2 1v3h-3v2h-3v2h-3l1-3h2l2-4z" fill="#B37D38"/>
<path transform="translate(833,859)" d="m0 0h3l-1 5-2 3h-4v-2l3-3z" fill="#CCA470"/>
<path transform="translate(593,834)" d="m0 0h1l4 13v5l-2-3-3-8z" fill="#58452E"/>
<path transform="translate(719,752)" d="m0 0 2 1-7 8-5 1 4-5z" fill="#5B462D"/>
<path transform="translate(848,595)" d="m0 0 1 3h2v3h-2l-2 5-3 2 3-10z" fill="#4B3F31"/>
<path transform="translate(424,536)" d="m0 0 6 1 11 1v1l-7 1-10-1z" fill="#61492C"/>
<path transform="translate(632,412)" d="m0 0h2v2h-3l-1 4h-5l1-4z" fill="#A76B1E"/>
<path transform="translate(663,375)" d="m0 0 3 1 1 4-1 2-4-1-1-3z" fill="#CCA470"/>
<path transform="translate(786,361)" d="m0 0 4 2h-3l1 4-3 1-3-3 1-3z" fill="#4F4130"/>
<path transform="translate(764,761)" d="m0 0 3 1 1 5h-3l-3-1 1-4z" fill="#A3681B"/>
<path transform="translate(698,682)" d="m0 0 6 1-1 4-5-1z" fill="#CCA470"/>
<path transform="translate(820,674)" d="m0 0 3 1 6 7-1 2-5-3z" fill="#4B3F31"/>
<path transform="translate(853,578)" d="m0 0 1 4 1 5-3 1-1 4-2 2 1-5z" fill="#4B3F31"/>
<path transform="translate(561,364)" d="m0 0 6 1-2 3-5 1-2-1 1-3z" fill="#A6691B"/>
<path transform="translate(541,284)" d="m0 0h3v5h-4l-1-4zm-4 4 2 1-2 1z" fill="#7A5526"/>
<path transform="translate(725,750)" d="m0 0h3v2h2l-1 3-7 1-1-2 3-1z" fill="#A6691B"/>
<path transform="translate(970,625)" d="m0 0 4 1v6l-4-2-1-4z" fill="#836239"/>
<path transform="translate(549,434)" d="m0 0h2l-2 5-4 6h-2l1-4z" fill="#5D472C"/>
<path transform="translate(502,258)" d="m0 0 4 1h-2v2l-4 1h-8l4-2z" fill="#5D472C"/>
</svg>
